<?xml version="1.0" standalone="no"?>
<!DOCTYPE svg PUBLIC "-//W3C//DTD SVG 20010904//EN"
 "http://www.w3.org/TR/2001/REC-SVG-20010904/DTD/svg10.dtd">
<svg version="1.0" xmlns="http://www.w3.org/2000/svg"
 width="2500.000000pt" height="541.000000pt" viewBox="0 0 2500.000000 541.000000"
 preserveAspectRatio="xMidYMid meet">

<g transform="translate(0.000000,541.000000) scale(0.100000,-0.100000)"
fill="#000000" stroke="none">
<path d="M7280 5325 c-73 -21 -166 -69 -162 -84 1 -7 -2 -9 -9 -6 -16 11 -133
-114 -164 -175 -43 -85 -58 -148 -58 -245 -1 -233 153 -433 387 -500 76 -22
216 -22 293 0 151 44 282 153 349 290 39 80 39 80 39 205 0 110 -3 133 -25
188 -55 139 -173 254 -315 308 -89 33 -250 43 -335 19z"/>
<path d="M16020 5333 c-90 -10 -215 -35 -291 -59 -104 -33 -271 -113 -262
-127 3 -6 2 -7 -4 -4 -13 8 -95 -47 -86 -58 5 -4 3 -5 -4 -1 -22 12 -172 -136
-241 -237 -89 -130 -158 -304 -187 -472 -8 -49 -16 -145 -16 -212 l-1 -123
-214 0 -214 0 0 -200 c0 -215 7 -251 52 -291 42 -37 122 -68 243 -94 66 -14
123 -29 127 -33 4 -4 7 -544 5 -1200 l-2 -1192 448 0 447 0 0 1200 0 1200 310
0 310 0 0 305 0 305 -325 0 -325 0 0 93 c2 321 137 522 394 582 46 11 137 15
379 15 l317 0 0 -1850 0 -1850 443 0 442 0 -3 2155 -2 2155 -853 -2 c-468 0
-868 -3 -887 -5z m123 -10 c-7 -2 -19 -2 -25 0 -7 3 -2 5 12 5 14 0 19 -2 13
-5z m-1626 -1565 c-1 -51 -3 -10 -3 92 0 102 2 143 3 93 2 -51 2 -135 0 -185z"/>
<path d="M18933 5330 c-56 -12 -144 -50 -137 -61 3 -5 -1 -6 -8 -4 -23 9 -129
-86 -179 -159 -60 -88 -80 -149 -86 -256 -9 -153 33 -271 134 -381 106 -113
236 -170 392 -170 341 0 600 290 542 606 -17 93 -82 214 -152 280 -37 35 -64
54 -71 49 -7 -4 -10 -4 -6 1 11 11 -29 38 -44 29 -6 -4 -8 -3 -4 4 7 11 -73
45 -147 62 -50 11 -175 11 -234 0z m84 -6 c-3 -3 -12 -4 -19 -1 -8 3 -5 6 6 6
11 1 17 -2 13 -5z m90 0 c-3 -3 -12 -4 -19 -1 -8 3 -5 6 6 6 11 1 17 -2 13 -5z"/>
<path d="M21877 4085 c-245 -40 -467 -154 -666 -343 -84 -79 -72 -86 -117 71
-41 143 -72 187 -153 215 -23 8 -131 12 -337 12 l-304 0 0 -1985 0 -1985 445
0 445 0 0 575 c0 316 3 575 8 575 4 0 34 -20 67 -45 78 -59 243 -139 325 -159
160 -38 347 -42 526 -10 467 83 850 479 989 1024 43 166 57 270 62 461 25 830
-297 1433 -843 1579 -104 28 -323 35 -447 15z m-7 -681 c83 -19 136 -51 195
-116 81 -90 139 -240 167 -436 19 -134 16 -485 -6 -607 -75 -422 -277 -624
-604 -602 -154 10 -276 60 -384 156 l-48 43 0 644 0 644 68 71 c108 116 217
176 367 204 95 18 168 18 245 -1z"/>
<path d="M4596 4080 c-593 -68 -1030 -384 -1225 -885 -80 -205 -111 -386 -111
-655 0 -281 39 -491 130 -700 78 -181 159 -301 294 -436 170 -169 396 -296
646 -363 220 -59 548 -73 785 -32 330 57 600 194 805 407 108 113 170 200 241
339 62 123 109 261 140 410 30 145 38 495 15 655 -97 671 -531 1127 -1182
1241 -136 23 -413 33 -538 19z m397 -680 c90 -28 146 -62 210 -126 135 -136
207 -391 207 -729 0 -451 -111 -730 -333 -838 -95 -46 -161 -60 -282 -60 -302
1 -488 153 -569 464 -83 323 -52 808 67 1034 61 116 190 223 307 255 124 34
283 34 393 0z m-826 -892 c-2 -18 -4 -4 -4 32 0 36 2 50 4 33 2 -18 2 -48 0
-65z m1260 15 c-3 -10 -5 -2 -5 17 0 19 2 27 5 18 2 -10 2 -26 0 -35z"/>
<path d="M9746 4079 c-356 -38 -650 -171 -876 -398 -109 -110 -179 -207 -250
-348 -117 -235 -170 -482 -170 -798 0 -172 10 -278 40 -420 67 -318 247 -634
465 -815 289 -240 618 -340 1024 -310 432 31 745 160 1008 414 l94 91 -143
176 c-164 202 -188 222 -282 221 -78 0 -93 -6 -201 -86 -115 -85 -231 -143
-315 -156 -419 -65 -686 165 -761 655 -7 44 -12 154 -12 245 1 344 68 565 216
714 125 126 256 172 465 164 145 -6 210 -27 390 -127 120 -66 132 -71 190 -71
75 0 99 9 143 53 47 47 281 357 277 367 -5 14 -139 129 -203 175 -88 63 -257
149 -360 183 -216 72 -487 98 -739 71z"/>
<path d="M12644 4080 c-348 -40 -641 -177 -875 -410 -363 -362 -503 -906 -384
-1496 97 -479 380 -855 786 -1043 220 -101 425 -143 704 -143 517 -1 907 135
1204 419 l92 88 -86 105 c-47 58 -111 137 -143 177 -63 79 -96 103 -156 114
-74 13 -139 -6 -319 -95 -238 -119 -310 -139 -502 -140 -117 -1 -163 3 -210
17 -204 61 -331 162 -414 329 -41 83 -82 223 -96 325 l-7 53 920 2 c912 3 921
3 949 24 15 11 37 38 48 60 18 36 20 58 19 269 0 198 -3 244 -22 327 -122 550
-469 893 -1010 998 -120 24 -379 34 -498 20z m361 -625 c131 -35 243 -120 303
-234 40 -74 72 -196 72 -273 l0 -58 -560 0 c-486 0 -561 2 -566 15 -10 24 44
193 88 277 73 142 199 242 341 273 86 19 249 19 322 0z"/>
<path d="M10 4030 c0 -6 4 -8 10 -5 5 3 8 0 5 -7 -3 -7 45 -141 105 -298 61
-157 135 -348 165 -425 29 -77 105 -273 168 -435 295 -760 671 -1730 689
-1778 l20 -52 410 2 410 3 99 255 c55 140 146 377 204 525 57 149 171 443 253
655 83 212 215 554 295 760 80 206 183 473 230 593 l84 217 -382 0 c-436 0
-446 -2 -513 -74 -28 -30 -47 -65 -65 -122 -388 -1195 -531 -1651 -572 -1827
-16 -65 -31 -114 -35 -110 -4 4 -15 46 -24 92 -27 128 -108 404 -337 1146
-116 374 -217 702 -226 728 -18 59 -62 111 -117 140 -40 21 -51 22 -458 25
-299 2 -418 0 -418 -8z"/>
<path d="M6965 2535 l0 -1505 448 0 447 0 0 1505 0 1505 -447 0 -448 0 0
-1505z"/>
<path d="M18600 2535 l0 -1505 448 0 447 0 0 1505 0 1505 -447 0 -448 0 0
-1505z"/>
</g>
</svg>
